<svg version="1" xmlns="http://www.w3.org/2000/svg" width="1434.667" height="1434.667" viewBox="0 0 1076.000000 1076.000000"><path d="M326.5 174.3l-210 121.3v486.8l210 121.3c115.5 66.7 210.7 121.2 211.6 121.1.8-.2 95.9-54.8 211.2-121.3l209.6-121v-487l-209.6-121C634 107.9 538.9 53.4 538.1 53.2c-.9-.1-96.1 54.4-211.6 121.1zm163.9 49.4c1.6 10.4 3 20 3.3 21.4.5 2.5.4 2.5-14.4 5.8-70.4 15.6-126.6 50.2-170.8 105.1-50 62.1-72.6 148.5-59.5 227.5C268.2 699.9 353 792.2 467.1 821c74.7 18.9 154.5 6.9 221.4-33.3 87.4-52.4 141.6-148.3 141.5-250.6 0-54.6-15.1-106.7-44.9-155.3-3.9-6.4-7.1-12.1-7.1-12.6 0-1 34-26.6 34.5-26 1.7 1.8 21 34.8 25.1 43.1 46.5 92.4 47.8 201.8 3.5 295.2-39.1 82.3-109.6 144.9-196.5 174.2-34.5 11.6-69 17.3-106.1 17.3-22.3 0-36.5-1.1-56.6-4.5-85.8-14.4-162.7-61.6-214.5-131.7-33.9-45.8-54.8-98.2-63.1-157.8-2.5-17.9-2.5-66.4.1-84 5.6-40.1 15.3-71.4 32.6-106.5 45.9-93.2 128.5-157.1 232.5-180 8.3-1.9 15.7-3.4 16.6-3.4 1.2-.1 2 3.5 4.3 18.6zm82.5 80.8c47.1 7.4 90.5 28.2 125.7 60.4 3.1 2.8 5.4 5.7 5.1 6.4-.6 1.6-169.6 176.7-170.5 176.7-1.4 0-63.9-235.5-62.8-236.2 3.5-2.1 29.1-7.2 44.1-8.8 11.9-1.3 46.3-.4 58.4 1.5zm-138 25.2c4.2 16.1 76.5 286.8 77.5 290.1l1.2 4.3 108.9-110.6 109-110.6 1.9 2.3c3.8 4.7 15.8 26 20.1 35.7 27.9 62.8 28.2 131.3 1 194.1-7.2 16.7-20.2 37.9-32.8 53.5-31.7 39.3-77.8 68.5-127.2 80.6-21.6 5.3-31.7 6.4-57.5 6.3-26 0-38.9-1.6-60.8-7.5-56-14.8-105.2-50.6-137.4-99.9-14.2-21.7-26.5-50.9-32.2-76.2-7.6-34-7.6-71.6 0-105.6 12.8-57.4 49.8-111.4 98.4-143.7 8-5.3 27.1-16.4 28.2-16.5.4 0 1.2 1.7 1.7 3.7z"/></svg>